<svg width="90" height="63" viewBox="0 0 90 63" fill="none" xmlns="http://www.w3.org/2000/svg">
<path d="M2.85348e-08 17.934L43.5845 37.3275C44.0217 37.522 44.5072 37.6235 45 37.6235C45.4928 37.6235 45.9783 37.522 46.4155 37.3275L90 17.9375V51.625C90.0002 54.5305 88.7009 57.3259 86.3686 59.4378C84.0363 61.5497 80.8478 62.818 77.4573 62.9825L76.7045 63H13.2955C9.89944 63.0002 6.63207 61.8886 4.1636 59.8931C1.69514 57.8977 0.212722 55.1698 0.020455 52.269L2.85348e-08 51.625V17.934ZM13.2955 2.44132e-08H76.7045C80.1006 -0.000190214 83.3679 1.11144 85.8364 3.10685C88.3049 5.10226 89.7873 7.83018 89.9795 10.731L90 11.375V12.019L45 32.039L2.85348e-08 12.019V11.375C-0.000222328 8.46952 1.29909 5.6741 3.63138 3.56219C5.96368 1.45028 9.15216 0.181995 12.5427 0.0175004L13.2955 2.44132e-08H76.7045H13.2955Z" fill="white"/>
</svg>
