<svg width="63" height="63" viewBox="0 0 63 63" fill="none" xmlns="http://www.w3.org/2000/svg">
<path d="M56.3676 29.5505H62.999C62.999 12.7049 50.1572 0 33.1242 0V6.56751C46.5928 6.56751 56.3676 16.2316 56.3676 29.5505Z" fill="white"/>
<path d="M33.5046 19.8671C40.5507 19.8671 43.556 22.8433 43.556 29.8209H50.257C50.257 19.1206 44.3099 13.2313 33.5046 13.2313V19.8671ZM44.9699 37.9265C44.3261 37.3471 43.4801 37.038 42.6105 37.0646C41.741 37.0913 40.9159 37.4515 40.3094 38.0692L32.2918 46.2346C30.3619 45.8696 26.4821 44.6719 22.4883 40.7269C18.4945 36.7686 17.285 32.9165 16.9265 31.0186L25.1653 23.0756C25.7899 22.4754 26.1542 21.6582 26.1811 20.7968C26.2079 19.9355 25.8953 19.0975 25.3094 18.4603L12.9294 4.97966C12.3432 4.34048 11.5285 3.95278 10.6583 3.89888C9.78811 3.84498 8.93096 4.12914 8.26892 4.691L0.998408 10.8656C0.419149 11.4413 0.0734088 12.2076 0.0267718 13.019C-0.0234852 13.8484 -0.981718 33.4971 14.4036 48.7396C27.8256 62.0279 44.6382 63 49.2686 63C49.9454 63 50.3608 62.9801 50.4714 62.9735C51.2906 62.928 52.064 62.5841 52.6425 62.0079L58.8744 54.8048C59.4422 54.1496 59.7297 53.301 59.6759 52.4393C59.6221 51.5775 59.2312 50.7705 58.5862 50.1895L44.9699 37.9265Z" fill="white"/>
</svg>
